<?xml version="1.0" standalone="no"?>
<!DOCTYPE svg PUBLIC "-//W3C//DTD SVG 20010904//EN"
 "http://www.w3.org/TR/2001/REC-SVG-20010904/DTD/svg10.dtd">
<svg version="1.0" xmlns="http://www.w3.org/2000/svg"
 width="310.000000pt" height="310.000000pt" viewBox="0 0 310.000000 310.000000"
 preserveAspectRatio="xMidYMid meet">
<metadata>
Created by potrace 1.11, written by Peter Selinger 2001-2013
</metadata>
<g transform="translate(0.000000,310.000000) scale(0.100000,-0.100000)"
fill="#000000" stroke="none">
<path d="M1380 2511 c0 -7 -4 -10 -9 -6 -5 3 -12 1 -16 -5 -4 -6 -11 -7 -17
-4 -6 4 -8 2 -4 -4 3 -5 2 -12 -4 -14 -13 -4 -22 -48 -9 -48 5 0 8 -3 8 -7 -5
-31 36 -53 94 -50 20 1 37 -2 37 -8 0 -7 3 -7 8 0 8 11 118 12 129 2 3 -4 1
-7 -7 -7 -10 0 -10 -3 0 -15 9 -11 9 -15 1 -15 -9 0 -9 -5 0 -21 9 -17 8 -20
-2 -14 -8 6 -10 4 -4 -4 9 -16 12 -141 3 -141 -4 0 -3 -11 2 -24 6 -17 5 -26
-3 -30 -9 -3 -9 -5 1 -5 6 -1 12 -6 12 -12 0 -5 -4 -8 -9 -4 -6 3 -6 -6 -1
-25 6 -21 5 -30 -3 -30 -7 0 -6 -4 3 -10 13 -9 13 -10 0 -10 -9 0 -11 -3 -5
-8 6 -4 10 -16 10 -27 0 -11 -4 -23 -10 -27 -6 -5 -5 -8 3 -8 6 0 12 -5 12
-11 0 -5 -4 -8 -9 -4 -6 3 -6 -6 -1 -25 6 -21 5 -30 -3 -30 -8 0 -7 -3 2 -9
11 -7 11 -9 0 -14 -10 -4 -10 -6 -1 -6 6 -1 12 -6 12 -12 0 -5 -4 -8 -9 -5 -4
3 -5 -12 -1 -34 5 -26 3 -41 -4 -44 -7 -3 -7 -5 2 -5 6 -1 12 -6 12 -12 0 -5
-3 -8 -8 -6 -10 7 -9 -57 1 -64 5 -3 2 -9 -6 -12 -10 -4 -22 4 -32 20 -10 14
-33 40 -52 57 -19 17 -46 41 -59 54 -13 13 -24 19 -24 15 0 -4 -5 0 -11 10 -5
9 -16 17 -24 17 -7 0 -15 4 -17 9 -1 5 -10 11 -18 13 -8 2 -21 9 -28 16 -8 7
-18 10 -23 7 -5 -4 -9 -1 -9 4 0 6 -9 11 -20 11 -11 0 -20 5 -20 10 0 6 -13
10 -29 10 -17 0 -32 4 -36 9 -3 6 -13 10 -23 10 -49 2 -72 6 -72 11 0 3 -40 5
-90 5 -49 0 -90 -3 -90 -7 0 -4 -9 -5 -20 -3 -11 2 -22 0 -24 -4 -3 -4 -19 -7
-35 -6 -17 1 -28 -2 -25 -7 3 -4 -3 -8 -13 -8 -11 0 -25 -6 -32 -12 -11 -11
-13 -10 -7 0 4 6 -9 3 -28 -9 -20 -12 -36 -18 -36 -14 0 3 -7 -1 -16 -9 -8 -9
-22 -16 -30 -16 -8 0 -14 -4 -14 -10 0 -5 -7 -10 -15 -10 -9 0 -18 -7 -21 -15
-4 -8 -10 -12 -15 -9 -5 3 -9 1 -9 -5 0 -5 -9 -13 -20 -16 -11 -4 -18 -11 -15
-16 4 -5 1 -9 -4 -9 -14 0 -57 -43 -54 -52 2 -5 -5 -8 -14 -8 -9 0 -13 -3 -10
-7 4 -3 -2 -12 -13 -20 -11 -8 -20 -21 -20 -29 0 -8 -4 -14 -8 -14 -8 0 -35
-46 -36 -63 -1 -4 -7 -12 -15 -16 -7 -5 -10 -14 -7 -20 4 -6 2 -11 -3 -11 -6
0 -11 -5 -11 -11 0 -6 -6 -25 -14 -42 -31 -73 -36 -89 -31 -98 4 -5 1 -9 -5
-9 -6 0 -8 -4 -5 -10 3 -5 1 -19 -6 -31 -8 -16 -8 -20 1 -14 9 5 9 3 2 -11
-13 -25 -12 -215 0 -231 7 -9 7 -13 -2 -13 -9 0 -7 -7 5 -20 14 -15 15 -20 4
-20 -12 0 -11 -2 1 -10 8 -5 11 -12 8 -16 -4 -3 -1 -19 8 -35 8 -16 12 -29 9
-29 -3 0 2 -11 11 -25 9 -14 13 -25 9 -25 -3 0 4 -15 17 -33 13 -17 22 -33 20
-34 -7 -8 0 -23 8 -18 6 3 10 -3 10 -14 0 -12 5 -21 10 -21 6 0 10 -4 10 -10
0 -11 20 -37 66 -86 17 -18 29 -36 26 -39 -3 -3 1 -5 9 -5 8 0 21 -9 29 -20 8
-11 20 -20 26 -20 7 0 14 -4 16 -8 6 -16 178 -109 178 -97 0 2 19 -4 43 -13
49 -21 89 -26 207 -26 86 0 140 6 159 19 6 3 11 0 11 -7 0 -11 2 -11 9 0 4 7
14 15 22 16 18 4 68 23 96 38 18 9 26 8 40 -5 14 -12 23 -13 37 -5 10 6 16 6
13 1 -7 -11 543 -12 561 0 6 5 12 5 12 1 0 -4 11 2 23 15 30 27 29 63 -4 93
-26 24 -45 28 -68 14 -9 -6 -12 -5 -8 0 3 6 -9 10 -28 10 -19 0 -31 -4 -28 -9
3 -5 -3 -4 -14 1 -12 7 -25 7 -36 1 -9 -6 -17 -6 -17 -1 0 5 -15 6 -32 4 -30
-5 -32 -4 -19 12 12 15 13 19 1 26 -11 7 -11 11 -1 24 8 9 9 16 3 16 -12 0
-11 18 2 39 5 8 4 16 -5 21 -10 7 -10 11 0 24 11 13 11 16 0 16 -12 0 -12 2 0
9 11 7 11 9 0 13 -12 4 -12 7 0 21 7 10 9 17 4 17 -11 0 -10 61 1 78 3 6 2 13
-2 16 -10 6 -8 54 2 63 3 4 1 12 -5 19 -6 7 -6 14 0 18 5 3 7 15 4 25 -3 11 2
30 11 43 9 12 16 19 16 15 0 -8 35 19 59 46 8 9 20 17 25 17 5 0 15 8 22 18 9
11 13 13 14 4 0 -7 5 -10 10 -7 5 3 10 3 10 -2 1 -14 67 -83 74 -76 3 3 6 1 6
-6 0 -7 32 -44 70 -82 39 -39 70 -75 70 -81 0 -6 3 -9 6 -5 6 6 34 -16 34 -26
0 -3 29 -34 64 -68 36 -34 63 -66 60 -71 -3 -4 0 -8 7 -8 15 0 129 -116 129
-131 0 -5 5 -7 10 -4 6 3 10 1 10 -5 0 -6 6 -8 13 -4 6 4 4 -2 -7 -14 -10 -12
-24 -18 -30 -15 -16 10 -106 5 -121 -7 -6 -5 -15 -7 -18 -4 -3 4 -9 -5 -13
-20 -3 -14 -11 -23 -16 -20 -6 4 -2 -5 7 -20 10 -14 14 -26 9 -26 -5 0 3 -8
16 -17 22 -16 55 -18 290 -19 274 -1 320 5 320 41 0 8 4 15 10 15 6 0 6 9 0
24 -5 13 -6 27 -2 32 4 4 2 4 -4 1 -7 -4 -15 0 -18 9 -3 8 -10 13 -15 9 -5 -3
-12 -2 -14 2 -6 10 -59 9 -75 -1 -7 -4 -12 -3 -12 2 0 6 -23 8 -52 6 l-51 -3
-109 109 c-59 61 -108 114 -108 120 0 5 -6 10 -12 10 -7 0 -31 22 -53 50 -22
27 -46 49 -53 50 -7 0 -11 3 -9 8 3 4 -1 13 -9 20 -8 7 -14 9 -15 5 0 -4 -4 2
-10 15 -5 13 -13 20 -19 17 -5 -3 -10 -1 -10 6 0 6 -28 38 -62 70 -33 33 -58
59 -53 59 4 0 -5 10 -21 22 -44 34 -54 45 -47 52 4 3 -1 6 -10 6 -9 0 -17 5
-17 10 0 13 -37 50 -43 44 -2 -3 -7 1 -10 9 -3 8 13 31 36 53 23 21 36 30 28
19 -8 -11 0 -5 16 13 17 17 35 32 39 32 5 0 15 9 22 20 7 11 19 20 27 20 8 0
15 7 15 15 0 8 5 15 10 15 6 0 24 13 40 30 16 16 32 30 34 30 3 0 16 10 30 23
13 12 39 33 57 47 18 14 42 35 54 48 12 12 25 22 28 22 6 0 30 21 90 77 12 12
17 13 17 4 0 -10 3 -11 13 -2 10 8 17 7 25 -1 9 -9 12 -9 12 1 0 7 5 9 12 5
17 -11 58 -11 58 -1 0 4 9 3 20 -3 13 -7 20 -7 20 -1 0 6 7 8 15 5 9 -4 15 0
15 7 0 11 2 11 8 1 6 -9 12 -5 22 15 21 45 21 61 -2 83 -24 22 -23 22 -93 24
-27 0 -56 5 -62 9 -7 5 -13 4 -13 -1 0 -12 -60 -10 -60 3 0 7 -3 7 -8 0 -9
-13 -72 -15 -72 -2 0 5 -6 5 -13 -2 -10 -8 -17 -7 -27 2 -10 9 -11 9 -6 -1 8
-13 -19 -13 -41 1 -6 4 -13 2 -15 -4 -3 -9 -10 -9 -27 1 -13 6 -21 7 -17 2 4
-7 -7 -9 -29 -8 -19 2 -35 -1 -35 -5 0 -5 -6 -6 -13 -3 -18 6 -37 -18 -39 -47
-2 -44 2 -60 12 -54 6 3 10 0 10 -7 0 -10 13 -14 43 -14 30 0 42 -4 42 -15 0
-8 -6 -13 -12 -12 -7 2 -12 0 -10 -5 1 -4 0 -7 -3 -8 -3 0 -23 -18 -46 -40
-45 -44 -88 -79 -91 -76 -2 1 -18 -14 -38 -33 -19 -20 -35 -34 -35 -32 0 3
-22 -16 -49 -40 -27 -25 -53 -45 -57 -46 -4 -1 -23 -17 -41 -36 -18 -19 -33
-30 -33 -25 -1 5 -7 -2 -15 -16 -7 -14 -16 -24 -19 -22 -7 3 -18 -6 -64 -48
-32 -29 -64 -41 -42 -16 10 13 10 16 -1 16 -11 0 -11 2 1 10 8 5 10 10 3 10
-11 0 -10 60 1 79 4 5 2 12 -2 15 -8 5 -9 29 -2 61 1 6 1 12 0 15 -6 15 -4 98
2 94 5 -3 8 -1 8 5 0 5 -6 11 -12 14 -10 3 -10 7 1 20 7 10 9 17 3 17 -12 0
-11 18 2 39 5 8 4 16 -5 21 -10 7 -10 11 0 24 11 13 11 16 0 16 -12 0 -12 2 0
9 11 7 11 9 0 13 -12 4 -12 7 0 21 7 10 9 17 5 17 -5 0 -9 24 -9 54 0 30 3 52
8 49 4 -2 7 0 7 6 0 5 -6 11 -12 14 -10 3 -10 7 1 20 7 10 9 17 3 17 -12 0
-11 18 2 39 5 8 4 16 -5 21 -10 7 -10 11 0 24 11 13 11 16 0 16 -12 0 -12 2 0
9 11 7 11 9 0 13 -12 4 -12 7 0 21 7 10 9 17 4 17 -11 0 -10 61 1 78 3 6 2 13
-2 16 -10 6 -8 54 2 63 3 4 1 12 -5 20 -9 10 -8 17 1 28 10 12 10 15 -1 15
-12 0 -12 2 0 9 11 7 11 9 0 13 -12 4 -12 7 0 21 9 11 10 17 2 17 -13 0 -10
22 4 32 6 5 5 8 -3 8 -10 0 -10 5 -2 20 8 14 8 20 0 20 -7 0 -9 8 -5 19 3 12
0 21 -10 25 -8 3 -15 1 -15 -4 0 -5 -13 -5 -30 0 -21 6 -30 5 -30 -3 0 -7 -4
-6 -10 3 -6 9 -10 10 -10 3 0 -8 -9 -9 -30 -3 -21 6 -30 5 -30 -3 0 -7 -4 -6
-10 3 -6 9 -10 10 -10 3 0 -8 -9 -9 -30 -3 -21 6 -30 5 -30 -3 0 -7 -4 -6 -10
3 -6 9 -10 10 -10 3 0 -8 -9 -9 -30 -3 -20 6 -30 5 -30 -2 0 -6 -6 -6 -15 2
-11 9 -15 9 -15 1z m-388 -734 c6 -9 8 -9 8 0 0 7 16 10 48 8 26 -2 47 -4 47
-5 0 -1 13 -3 29 -5 16 -2 36 -7 45 -11 9 -4 22 -8 30 -10 22 -4 105 -47 113
-59 4 -5 8 -7 8 -3 0 15 125 -103 162 -153 15 -20 24 -39 21 -43 -4 -3 1 -6
10 -6 10 0 17 -8 17 -18 0 -10 7 -27 15 -38 8 -12 11 -24 8 -28 -3 -3 -2 -6 3
-6 5 0 10 -10 11 -22 1 -11 6 -24 10 -27 4 -3 9 -28 10 -56 2 -27 4 -67 6 -87
1 -21 -1 -38 -6 -38 -4 0 -3 -10 4 -21 9 -17 8 -20 -2 -14 -8 6 -10 4 -4 -5 9
-14 8 -81 -1 -122 -3 -13 -6 -29 -6 -35 -1 -7 -4 -13 -8 -13 -4 0 -7 -6 -8
-12 -2 -32 -9 -50 -21 -58 -8 -4 -10 -13 -7 -19 4 -6 0 -14 -8 -17 -9 -3 -13
-10 -10 -15 3 -5 -1 -12 -10 -15 -9 -3 -12 -12 -9 -21 4 -11 2 -14 -5 -9 -7 4
-12 2 -12 -4 0 -6 -11 -21 -25 -34 -13 -13 -22 -26 -18 -29 3 -4 2 -7 -4 -7
-6 0 -26 -15 -46 -32 -52 -49 -80 -68 -94 -68 -7 0 -13 -5 -13 -12 0 -6 -3 -8
-7 -5 -3 4 -14 0 -24 -9 -10 -9 -25 -14 -34 -10 -9 3 -13 2 -10 -4 5 -9 -8
-12 -31 -9 -4 0 -10 -4 -13 -10 -4 -5 -23 -11 -44 -13 -20 -1 -37 -7 -37 -13
0 -6 -3 -7 -8 0 -10 14 -32 17 -32 4 0 -8 -5 -8 -15 1 -12 10 -15 10 -15 0 0
-9 -4 -9 -13 -2 -8 7 -18 7 -27 2 -8 -5 -19 -6 -25 -2 -5 4 -21 8 -35 10 -13
2 -31 9 -39 15 -12 10 -13 9 -6 -2 6 -11 4 -13 -11 -7 -10 5 -28 11 -39 14
-11 3 -23 9 -26 14 -3 5 -16 10 -27 11 -12 1 -22 5 -22 9 0 4 -5 8 -11 8 -6 0
-17 7 -26 15 -8 8 -19 12 -25 9 -7 -4 -8 -2 -4 4 4 7 1 12 -6 12 -8 0 -20 9
-28 19 -7 11 -17 18 -22 15 -4 -3 -8 2 -8 10 0 9 -8 16 -17 16 -9 0 -14 2 -11
5 3 3 -12 24 -33 46 -22 23 -39 48 -39 55 0 8 -4 14 -8 14 -10 0 -37 50 -34
63 1 4 -3 7 -10 7 -6 0 -8 3 -5 7 4 3 0 17 -9 31 -10 15 -11 21 -3 17 9 -6 10
-4 3 6 -17 27 -30 74 -29 112 0 20 -2 37 -5 37 -3 0 -4 30 -3 67 1 38 2 68 3
68 1 0 4 11 5 25 6 41 11 59 17 66 4 3 4 12 1 20 -3 8 0 14 6 14 7 0 11 6 9
13 -4 18 52 128 63 122 5 -4 6 0 3 8 -5 14 139 171 148 162 3 -3 13 4 23 15
10 11 24 20 32 20 7 0 16 7 20 16 5 13 7 13 14 2 7 -10 9 -9 9 4 0 11 6 16 20
13 11 -2 26 2 33 9 7 7 20 12 30 10 9 -1 17 1 17 6 0 5 11 7 24 6 14 -2 29 0
34 3 18 11 67 9 74 -2z m608 -1099 c0 -5 -4 -7 -9 -3 -6 3 -6 -6 -1 -23 4 -16
4 -35 0 -43 -5 -7 -6 -17 -3 -23 4 -5 1 -6 -8 0 -8 5 -31 8 -52 7 -35 -2 -38
-1 -26 15 8 9 26 29 41 43 16 14 28 31 28 37 0 6 7 9 15 6 8 -4 15 -10 15 -16z"/>
</g>
</svg>
